<svg width="22" height="20" viewBox="0 0 22 20" fill="none" xmlns="http://www.w3.org/2000/svg">
<path d="M18.8255 19.3588H15.4195C15.2075 19.3588 15.0331 19.1878 15.0331 18.9724V15.4569H2.08603C0.933582 15.4569 0 14.5233 0 13.3709V10.5017C0 9.74599 0.406944 9.04837 1.06695 8.67904L16.1 0.266545C16.8489 -0.15408 17.7894 -0.0754305 18.4665 0.492242C18.9452 0.895768 19.2051 1.50106 19.2051 2.12687V11.2814H21.3869C21.5989 11.2814 21.7733 11.4524 21.7733 11.6679V15.0739C21.7733 15.2859 21.6023 15.4603 21.3869 15.4603H19.2051V18.9758C19.2051 19.1878 19.0341 19.3622 18.8187 19.3622L18.8255 19.3588ZM4.96542 11.2814H15.0331V5.64917L4.96542 11.2814Z" fill="#ED1C24"/>
</svg>
